<?xml version="1.0" encoding="UTF-8"?>
<!-- Generator: Adobe Illustrator 28.0.0, SVG Export Plug-In . SVG Version: 6.00 Build 0)  -->
<svg version="1.1" id="Layer_1" xmlns="http://www.w3.org/2000/svg" xmlns:xlink="http://www.w3.org/1999/xlink" x="0px" y="0px" viewBox="0 0 281.8 90" style="enable-background:new 0 0 281.8 90;" xml:space="preserve">
<style type="text/css">
	.st0{fill:#EA1A1E;}
	.st1{fill:#FFFFFF;}
	.st2{fill:#767676;}
</style>
<g>
	<g>
		<g>
			<g>
				<path class="st0" d="M228.9,43.3v-7.1c0-2.9,0.3-5.5-2.5-7.4c-2.1-1.4-5.5-1.8-8-1.8c-4.9,0-10.1,1.3-11.4,6.4l7.8,0.7      c0.3-1.7,1.7-2.3,3.4-2.3c2.1,0,2.6,0.7,2.6,2.6v0.2c-2.9,0.2-5.8,0.5-8.6,1.3c-3,0.9-5.8,3-5.8,6.3c0,0.2,0,0.3,0,0.5l-4.5-8.1      l6.6-7h-7.9l-6.5,7.2l0-14.5h-8.5v14c-1.5-4.4-5.4-7.1-11.2-7.1c-3.1,0-6.5,1-8.7,3.2c-1.2,1.1-2.1,2.6-2.6,4.2      c0-1.8-0.1-3.5-1.2-5.1c-1.2-1.7-3.5-2.2-5.6-2.2c-2.6,0-4.6,1-6.2,2.8v-9.7h-8.5v21.5c-1.1,0.4-1.5,0.6-2.3,0.6      c-2,0-2.1-1.2-2.1-2.6v-6.8h2.2v-5.5H137V20h-7.8v7.4h-4.4v3.6c-2.2-2.5-5.6-4-9.6-4c-5.8,0-10.5,3-11.7,8c-0.6-4.1-2.9-8-8.1-8      c-2.9,0-5.3,0.8-6.2,3.3h-0.1v-2.9h-7.9v17.2l-8.1-24.4h-9.7l-9,27.6h7.3l1.8-5.5h7.9l1.7,5.5h8.2v8.1h8.5V45.6      c1.3,1.8,3.4,2.6,5.7,2.6c3,0,5.3-1.5,6.7-3.9c0.7-1.2,1.1-2.6,1.3-4c1.2,4.8,6,7.9,11.8,7.9c6.7,0,12.1-4.2,12.1-10.4      c0-1.8-0.4-3.5-1.1-4.9h2.7v7.4c0,2.2,0,4.1,1.6,5.8c1.7,1.7,3.6,1.7,6.2,1.7h4.9v0h8.5V35.5c0-0.7,0-1.4,0.5-2      c0.5-0.6,1.2-1,2-1c1.8,0,2.1,1.2,2.1,2.5v12.7h8.5v-6.5c0.6,1.6,1.6,3,3,4.2c2.5,2,5.6,2.7,8.8,2.7c4.4,0,8.6-1.8,10.6-5.3v4.9      h8.5v-5.6l2.1-2.5l4.1,8.2h8.9l-0.6-1.1c1.4,1,3.3,1.5,5.3,1.5c3,0,5.5-0.9,7.2-3.2c0,1,0.1,1.9,0.3,2.8h8.2      C229,46.3,228.9,44.8,228.9,43.3z M65,36.1l2.4-8.1l2.4,8.1H65z M94.9,37.7c0,1.2-0.1,2.6-0.4,3.7c-0.3,1.1-1.1,1.7-2.3,1.7      c-2.1,0-2.3-1.9-2.3-3.3v-4.9c0-0.8,0-1.4,0.5-2.1c0.5-0.5,1.2-0.8,1.9-0.8C94.9,32,94.9,36.1,94.9,37.7z M115.3,43.3      c-1.5,0-3-0.4-3-5.9c0-2,0-5.5,3-5.5c2.9,0,3,3.5,3,5.5C118.2,42.9,116.8,43.3,115.3,43.3z M174.5,31.6c2.4,0,3.1,1.5,3.1,3.5      h-6.1C171.4,33.3,172.3,31.6,174.5,31.6z M178.3,40.7c-0.5,1.9-1.5,2.2-3.5,2.2c-2.6,0-3.4-1.6-3.3-3.8h14.1v1.6L178.3,40.7z       M220.7,38.6c0,2.2,0,4.7-3.3,4.7c-1.3,0-2.2-0.6-2.2-1.9c0-2.5,3.4-3.1,5.5-3.3V38.6z"/>
			</g>
			<g>
				<path class="st0" d="M34.7,44.2c0,1.9,1.6,3.5,3.5,3.5c1.9,0,3.5-1.6,3.5-3.5c0-1.9-1.6-3.5-3.5-3.5      C36.3,40.7,34.7,42.3,34.7,44.2 M34,47.7c-0.7-1.9-0.8-4-0.8-6v-9.1c0-3.9,0.4-7.5-2.9-10c-2.5-1.9-6.2-2.4-9.2-2.4      c-5.7,0-11.6,1.8-13.1,8.6l9,0.9c0.3-2.3,1.9-3.1,3.8-3.1c2.4,0,3,1,3,3.4v0.2c-3.3,0.2-6.7,0.6-9.9,1.7      c-3.5,1.2-6.6,3.5-6.6,7.9c0,5.5,4.1,8.3,8.8,8.3c3.4,0,6.2-1.2,8.2-4.4c0,1.3,0.1,2.6,0.3,3.8H34z M4.9,12h37.6      c1.7,0,3.1,1.4,3.1,3.1v37.6c0,1.7-1.4,3.1-3.1,3.1H4.9c-1.7,0-3.1-1.4-3.1-3.1V15.1C1.8,13.4,3.1,12,4.9,12"/>
				<path class="st1" d="M34,47.7c-0.7-1.9-0.8-4-0.8-6v-9.1c0-3.9,0.4-7.5-2.9-10c-2.5-1.9-6.2-2.4-9.2-2.4      c-5.7,0-11.6,1.8-13.1,8.6l9,0.9c0.3-2.3,1.9-3.1,3.8-3.1c2.4,0,3,1,3,3.4v0.2c-3.3,0.2-6.7,0.6-9.9,1.7      c-3.5,1.2-6.6,3.5-6.6,7.9c0,5.5,4.1,8.3,8.8,8.3c3.4,0,6.2-1.2,8.2-4.4c0,1.3,0.1,2.6,0.3,3.8H34z"/>
				<path class="st1" d="M34.7,44.2c0,1.9,1.6,3.5,3.5,3.5c1.9,0,3.5-1.6,3.5-3.5c0-1.9-1.6-3.5-3.5-3.5      C36.3,40.7,34.7,42.3,34.7,44.2"/>
				<path class="st0" d="M23.8,35.7c0,3,0,6.4-3.7,6.4c-1.5,0-2.6-0.8-2.6-2.5c0-3.3,3.9-4.1,6.3-4.4V35.7z"/>
			</g>
		</g>
		<g>
			<path class="st0" d="M248.3,49.6c-2,0.2-11.5,0.5-11.5,0.5s7.9-6.1,10.6-7.9c5.7-3.8,10-8,10-13.6c0-6.2-5.3-9.6-12.5-9.6     c-5.9,0-10.1,2.5-12.4,5.9c0.3,0.3,0.6,0.7,0.9,1.1c2.8-3.4,5.3-4.8,9.1-4.8c5.5-0.1,8.3,3.8,7.6,9.2     c-0.7,5.2-5.4,10.6-13.8,17.8c-1,0.9-3.4,2.8-5.7,4.7c-1.8,1.5-1.1,3.1,0.7,3.1c11.9,0,22.7,0,22.7,0c0,0,0-7.2,0-7.2     C251.4,49.3,250.2,49.4,248.3,49.6z"/>
			<g>
				<path class="st0" d="M260.4,19.9c3.5,0,11.1,0,11.1,0c5.3,0,5.8-1.4,7.1-5.1c0.6-1.6,0.8-2.8,0.8-2.8s-1.3,0.6-1.9,0.8      c-1.3,0.4-2.9,0.3-3.9,0.3h-13.1c-1.1,0-1.5,0.2-1.8,1.1l-1.2,6.1C257.3,20.3,258,19.9,260.4,19.9z"/>
				<path class="st0" d="M268,26.2c-3.1,0-5.5,0.7-7.2,1.6c0,0.3,0.1,1.3,0.1,1.7c1.2-0.6,2.5-0.9,3.9-0.9c4.8,0,9.8,3,9.8,8.3      c0,10.2-10.5,14-17.4,14.8v1.1c16.3-0.6,24.6-6,24.6-15.3C281.8,30.7,275.9,26.2,268,26.2z"/>
			</g>
		</g>
	</g>
	<g>
		<path class="st2" d="M3.3,63.8v6.6l4.4-6.6h1.7l-3.3,4.6l4.1,8H8.5l-3.3-6.6l-1.9,2.6v4H1.8V63.8H3.3z"/>
		<path class="st2" d="M11.1,69.2c0.3-1.5,1.6-2.4,3.3-2.4c1.1,0,2,0.4,2.5,1.1c0.4,0.5,0.5,1.1,0.5,2.8v2.7c0,1.9,0,2.3,0.2,3h-1.3    c-0.1-0.6-0.1-0.9-0.1-1.7c-0.7,1.4-1.4,1.9-2.7,1.9c-1.7,0-2.8-1.1-2.8-2.8c0-0.8,0.3-1.6,0.7-2.1c0.7-0.8,1.8-1.2,3.4-1.2    c0.4,0,0.7,0,1.2,0.1v-0.4c0-1.6-0.5-2.3-1.8-2.3c-1,0-1.6,0.5-1.8,1.5L11.1,69.2z M16.1,71.8c-0.5-0.1-0.7-0.1-1.1-0.1    c-1.9,0-2.8,0.7-2.8,2.3c0,1,0.6,1.6,1.6,1.6c1.4,0,2.3-1.2,2.3-3.1L16.1,71.8z"/>
		<path class="st2" d="M21.3,67.1V73c0,1,0,1.5,0.1,1.8c0.2,0.5,0.6,0.8,1.3,0.8c0.7,0,1.2-0.4,1.6-1.1c0.3-0.7,0.4-1.3,0.4-3.1    v-4.3h1.4v9.3h-1.3V75c-0.6,1.2-1.3,1.7-2.4,1.7c-1.1,0-1.9-0.5-2.2-1.3c-0.2-0.4-0.3-1.2-0.3-2.4v-5.9H21.3z"/>
		<path class="st2" d="M35.3,66.8c-0.2,0-0.3,0-0.4,0c-0.6,0-0.9,0.3-1,1.2c0.5,0.7,0.7,1.3,0.7,2.1c0,1.8-1.3,3.2-3.2,3.2    c-0.4,0-0.6,0-1.1-0.2c-0.6,0.2-0.8,0.4-0.8,0.9c0,0.3,0.1,0.6,0.4,0.7c0.3,0.2,0.4,0.2,2,0.2c1.4,0.1,2.1,0.2,2.6,0.4    c0.7,0.3,1,1,1,2c0,1.7-1.4,2.7-4,2.7c-2.4,0-3.7-0.9-3.7-2.5c0-1,0.4-1.5,1.2-1.9c-0.6-0.4-0.9-0.8-0.9-1.4    c0-0.8,0.4-1.4,1.2-1.7c-0.8-0.8-1.1-1.4-1.1-2.5c0-1.8,1.4-3.2,3.1-3.2c0.6,0,0.9,0.1,1.5,0.4c0.3-1.3,0.8-1.7,2.2-1.6V66.8z     M29.3,77.3c0,1.1,0.7,1.6,2.4,1.6c1.6,0,2.4-0.5,2.4-1.5c0-0.7-0.4-1.1-1.2-1.2c-0.4,0-2.1-0.1-2.9-0.1    C29.6,76.4,29.3,76.8,29.3,77.3z M29.9,70.1c0,1.2,0.7,2.1,1.7,2.1s1.7-0.9,1.7-2.1c0-1.3-0.7-2.1-1.7-2.1    C30.5,68,29.9,68.8,29.9,70.1z"/>
		<path class="st2" d="M37.9,67.1v1.4c0.6-1.3,1.2-1.7,2.3-1.7c1.3,0,1.9,0.6,2.2,1.9c0.5-1.3,1.3-1.9,2.5-1.9    c0.9,0,1.7,0.4,2.1,1.1c0.3,0.5,0.4,1.2,0.4,2.7v5.8H46v-5.7c0-1.2,0-1.6-0.2-2c-0.2-0.5-0.6-0.8-1.2-0.8c-1.2,0-1.9,1.1-1.9,2.9    v5.5h-1.4v-5.5c0-1.6,0-1.6-0.1-2c-0.2-0.6-0.6-1-1.3-1c-0.7,0-1.3,0.4-1.6,1.2C38,69.6,38,69.9,38,71v5.4h-1.4v-9.3H37.9z"/>
		<path class="st2" d="M51.2,67.1V73c0,1,0,1.5,0.1,1.8c0.2,0.5,0.6,0.8,1.3,0.8c0.7,0,1.2-0.4,1.6-1.1c0.3-0.7,0.4-1.3,0.4-3.1    v-4.3h1.4v9.3h-1.3V75c-0.6,1.2-1.3,1.7-2.4,1.7c-1.1,0-1.9-0.5-2.2-1.3c-0.2-0.4-0.3-1.2-0.3-2.4v-5.9H51.2z M52.5,64.6    c0,0.5-0.4,0.9-1,0.9c-0.5,0-0.9-0.4-0.9-0.9c0-0.5,0.4-0.9,1-0.9C52.1,63.7,52.5,64.1,52.5,64.6z M55.3,64.6c0,0.5-0.4,0.9-1,0.9    c-0.5,0-0.9-0.4-0.9-0.9c0-0.5,0.4-0.9,1-0.9C54.9,63.7,55.3,64.1,55.3,64.6z"/>
		<path class="st2" d="M59.9,67.1V73c0,1,0,1.5,0.1,1.8c0.2,0.5,0.6,0.8,1.3,0.8c0.7,0,1.2-0.4,1.6-1.1c0.3-0.7,0.4-1.3,0.4-3.1    v-4.3h1.4v9.3h-1.3V75c-0.6,1.2-1.3,1.7-2.4,1.7c-1.1,0-1.9-0.5-2.2-1.3c-0.2-0.4-0.3-1.2-0.3-2.4v-5.9H59.9z M61.2,64.6    c0,0.5-0.4,0.9-1,0.9c-0.5,0-0.9-0.4-0.9-0.9c0-0.5,0.4-0.9,1-0.9C60.8,63.7,61.2,64.1,61.2,64.6z M64,64.6c0,0.5-0.4,0.9-1,0.9    c-0.5,0-0.9-0.4-0.9-0.9c0-0.5,0.4-0.9,1-0.9C63.6,63.7,64,64.1,64,64.6z"/>
		<path class="st2" d="M68.6,63.8v7.9l3.3-4.6h1.5l-2.5,3.3l2.8,6h-1.5l-2.2-5l-1.5,2v2.9h-1.4V63.8H68.6z"/>
		<path class="st2" d="M75.1,65.4v-1.6h1.5v1.6H75.1z M76.5,67.1v9.3h-1.4v-9.3H76.5z"/>
		<path class="st2" d="M84.1,64.8v2.3H86v1.1h-1.8v4.7c0,1.4,0.1,1.9,0.3,2.1c0.2,0.3,0.6,0.4,1.2,0.4c0.2,0,0.5,0,0.8-0.1v1.2    c-0.6,0.1-0.9,0.2-1.3,0.2c-1.1,0-1.8-0.3-2.1-1.1c-0.2-0.5-0.3-1.1-0.3-2.7v-4.7h-1.3v-1.1h1.3v-2.2L84.1,64.8z"/>
		<path class="st2" d="M88.4,71.9c0,2.4,0.7,3.6,2.2,3.6c1,0,1.5-0.5,1.9-1.9l1.3,0.3c-0.5,1.8-1.6,2.7-3.3,2.7    c-2.3,0-3.6-1.7-3.6-4.8c0-3.1,1.4-5.1,3.6-5.1c1,0,1.9,0.4,2.4,1.2c0.4,0.5,0.7,1.4,0.8,2.4c0.1,0.3,0.1,0.8,0.1,1.5H88.4z     M92.4,70.8c0-1.8-0.7-2.8-1.9-2.8c-1.1,0-1.8,0.9-2,2.8H92.4z"/>
		<path class="st2" d="M101.2,67.6c0.9,0.8,1.3,2.2,1.3,4.1c0,3.2-1.3,4.9-3.6,4.9c-2.3,0-3.6-1.8-3.6-4.9c0-3.2,1.3-5,3.6-5    C99.8,66.8,100.6,67.1,101.2,67.6z M96.9,71.8c0,2.5,0.7,3.8,2,3.8c1.3,0,2-1.3,2-3.8c0-2.4-0.7-3.8-2-3.8    C97.6,68,96.9,69.3,96.9,71.8z"/>
		<path class="st2" d="M108.8,69.5c-0.4-1.1-0.9-1.5-1.8-1.5c-0.9,0-1.6,0.6-1.6,1.4c0,0.4,0.2,0.8,0.5,1c0.3,0.2,0.3,0.2,1.6,0.6    c2.1,0.6,2.9,1.4,2.9,2.8c0,1.7-1.4,2.9-3.4,2.9c-1,0-1.9-0.3-2.5-0.9c-0.5-0.5-0.7-0.9-0.9-1.8l1.3-0.3c0.2,1.2,0.9,1.8,2.2,1.8    c1.1,0,1.9-0.6,1.9-1.5c0-0.8-0.4-1.2-1.8-1.6c-1.4-0.5-1.9-0.7-2.3-1c-0.5-0.4-0.8-1.1-0.8-1.8c0-1.6,1.3-2.8,3-2.8    c1.6,0,2.5,0.7,3,2.4L108.8,69.5z"/>
		<path class="st2" d="M113.7,64.8v2.3h1.8v1.1h-1.8v4.7c0,1.4,0.1,1.9,0.3,2.1c0.2,0.3,0.6,0.4,1.2,0.4c0.2,0,0.5,0,0.8-0.1v1.2    c-0.6,0.1-0.9,0.2-1.3,0.2c-1.1,0-1.8-0.3-2.1-1.1c-0.2-0.5-0.3-1.1-0.3-2.7v-4.7H111v-1.1h1.3v-2.2L113.7,64.8z"/>
		<path class="st2" d="M117.2,69.2c0.3-1.5,1.6-2.4,3.3-2.4c1.1,0,2,0.4,2.5,1.1c0.4,0.5,0.5,1.1,0.5,2.8v2.7c0,1.9,0,2.3,0.2,3    h-1.3c-0.1-0.6-0.1-0.9-0.1-1.7c-0.7,1.4-1.4,1.9-2.7,1.9c-1.7,0-2.8-1.1-2.8-2.8c0-0.8,0.3-1.6,0.7-2.1c0.7-0.8,1.8-1.2,3.4-1.2    c0.4,0,0.7,0,1.2,0.1v-0.4c0-1.6-0.5-2.3-1.8-2.3c-1,0-1.6,0.5-1.8,1.5L117.2,69.2z M122.2,71.8c-0.5-0.1-0.7-0.1-1.1-0.1    c-1.9,0-2.8,0.7-2.8,2.3c0,1,0.6,1.6,1.6,1.6c1.4,0,2.3-1.2,2.3-3.1L122.2,71.8z"/>
		<path class="st2" d="M127.4,63.8v4.5c0.7-1,1.3-1.4,2.4-1.4c2.1,0,3.3,1.8,3.3,4.8c0,3.2-1.3,4.9-3.6,4.9c-1.2,0-1.8-0.4-2.4-1.5    c-0.1,0.4-0.2,0.5-0.4,1.3H126V63.8H127.4z M127.4,72.4c0,2,0.7,3,2.1,3s2-1.2,2-3.8c0-2.6-0.6-3.6-2-3.6c-0.7,0-1.3,0.3-1.7,1.1    c-0.3,0.6-0.5,1-0.5,1.9V72.4z"/>
		<path class="st2" d="M143,63.8l3.4,12.6h-1.5l-0.9-3.6h-3.8l-0.9,3.6h-1.5l3.5-12.6H143z M142,65.3l-1.6,6.3h3.2L142,65.3z"/>
		<path class="st2" d="M149.2,67.1v1.6c0.6-1.3,1.3-1.8,2.5-1.8c2,0,3.3,1.9,3.3,4.7c0,1.9-0.5,3.4-1.4,4.3c-0.5,0.5-1,0.7-1.8,0.7    c-1.1,0-1.7-0.3-2.4-1.4v4.4H148V67.1H149.2z M149.3,72.5c0,1.3,0.1,1.6,0.6,2.2c0.4,0.5,0.9,0.8,1.5,0.8c1.3,0,2-1.3,2-3.8    c0-2.3-0.8-3.7-2.1-3.7c-0.7,0-1.3,0.4-1.6,1.1c-0.3,0.6-0.4,1-0.4,1.9V72.5z"/>
		<path class="st2" d="M162.3,67.6c0.9,0.8,1.3,2.2,1.3,4.1c0,3.2-1.3,4.9-3.6,4.9c-2.3,0-3.6-1.8-3.6-4.9c0-3.2,1.3-5,3.6-5    C161,66.8,161.8,67.1,162.3,67.6z M158,71.8c0,2.5,0.7,3.8,2,3.8c1.3,0,2-1.3,2-3.8c0-2.4-0.7-3.8-2-3.8    C158.7,68,158,69.3,158,71.8z"/>
		<path class="st2" d="M167.2,64.8v2.3h1.8v1.1h-1.8v4.7c0,1.4,0.1,1.9,0.3,2.1c0.2,0.3,0.6,0.4,1.2,0.4c0.2,0,0.5,0,0.8-0.1v1.2    c-0.6,0.1-0.9,0.2-1.3,0.2c-1.1,0-1.8-0.3-2.1-1.1c-0.2-0.5-0.3-1.1-0.3-2.7v-4.7h-1.3v-1.1h1.3v-2.2L167.2,64.8z"/>
		<path class="st2" d="M172.1,63.8v4.7c0.4-1.2,1.2-1.7,2.3-1.7c1,0,1.8,0.5,2.2,1.3c0.2,0.5,0.3,1,0.3,2.5v5.8h-1.4v-5.8    c0-1.2-0.1-1.6-0.3-2c-0.2-0.4-0.7-0.7-1.2-0.7c-1.2,0-1.9,1.3-1.9,3.6v4.9h-1.4V63.8H172.1z"/>
		<path class="st2" d="M180.4,71.9c0,2.4,0.7,3.6,2.2,3.6c1,0,1.5-0.5,1.9-1.9l1.3,0.3c-0.5,1.8-1.6,2.7-3.3,2.7    c-2.3,0-3.6-1.7-3.6-4.8c0-3.1,1.4-5.1,3.6-5.1c1,0,1.9,0.4,2.4,1.2c0.4,0.5,0.7,1.4,0.8,2.4c0.1,0.3,0.1,0.8,0.1,1.5H180.4z     M184.4,70.8c0-1.8-0.7-2.8-1.9-2.8c-1.1,0-1.8,0.9-2,2.8H184.4z"/>
		<path class="st2" d="M189.2,63.8v7.9l3.3-4.6h1.5l-2.5,3.3l2.8,6h-1.5l-2.2-5l-1.5,2v2.9h-1.4V63.8H189.2z"/>
		<path class="st2" d="M195.4,69.2c0.3-1.5,1.6-2.4,3.3-2.4c1.1,0,2,0.4,2.5,1.1c0.4,0.5,0.5,1.1,0.5,2.8v2.7c0,1.9,0,2.3,0.2,3    h-1.3c-0.1-0.6-0.1-0.9-0.1-1.7c-0.7,1.4-1.4,1.9-2.7,1.9c-1.7,0-2.8-1.1-2.8-2.8c0-0.8,0.3-1.6,0.7-2.1c0.7-0.8,1.8-1.2,3.4-1.2    c0.4,0,0.7,0,1.2,0.1v-0.4c0-1.6-0.5-2.3-1.8-2.3c-1,0-1.6,0.5-1.8,1.5L195.4,69.2z M200.4,71.8c-0.5-0.1-0.7-0.1-1.1-0.1    c-1.9,0-2.8,0.7-2.8,2.3c0,1,0.6,1.6,1.6,1.6c1.4,0,2.3-1.2,2.3-3.1L200.4,71.8z"/>
		<path class="st2" d="M209.8,63.8l4.8,10v-10h1.3v12.6h-1.5l-5.3-10.8v10.8h-1.3V63.8H209.8z"/>
		<path class="st2" d="M219.5,71.9c0,2.4,0.7,3.6,2.2,3.6c1,0,1.5-0.5,1.9-1.9l1.3,0.3c-0.5,1.8-1.6,2.7-3.3,2.7    c-2.3,0-3.6-1.7-3.6-4.8c0-3.1,1.4-5.1,3.6-5.1c1,0,1.9,0.4,2.4,1.2c0.4,0.5,0.7,1.4,0.8,2.4c0.1,0.3,0.1,0.8,0.1,1.5H219.5z     M223.4,70.8c0-1.8-0.7-2.8-1.9-2.8c-1.1,0-1.8,0.9-2,2.8H223.4z"/>
		<path class="st2" d="M228.4,64.8v2.3h1.8v1.1h-1.8v4.7c0,1.4,0.1,1.9,0.3,2.1c0.2,0.3,0.6,0.4,1.2,0.4c0.2,0,0.5,0,0.8-0.1v1.2    c-0.6,0.1-0.9,0.2-1.3,0.2c-1.1,0-1.8-0.3-2.1-1.1c-0.2-0.5-0.3-1.1-0.3-2.7v-4.7h-1.3v-1.1h1.3v-2.2L228.4,64.8z"/>
		<path class="st2" d="M231.9,65.4v-1.6h1.5v1.6H231.9z M233.3,67.1v9.3H232v-9.3H233.3z"/>
		<path class="st2" d="M235.7,69.2c0.3-1.5,1.6-2.4,3.3-2.4c1.1,0,2,0.4,2.5,1.1c0.4,0.5,0.5,1.1,0.5,2.8v2.7c0,1.9,0,2.3,0.2,3    h-1.3c-0.1-0.6-0.1-0.9-0.1-1.7c-0.7,1.4-1.4,1.9-2.7,1.9c-1.7,0-2.8-1.1-2.8-2.8c0-0.8,0.3-1.6,0.7-2.1c0.7-0.8,1.8-1.2,3.4-1.2    c0.4,0,0.7,0,1.2,0.1v-0.4c0-1.6-0.5-2.3-1.8-2.3c-1,0-1.6,0.5-1.8,1.5L235.7,69.2z M240.7,71.8c-0.5-0.1-0.7-0.1-1.1-0.1    c-1.9,0-2.8,0.7-2.8,2.3c0,1,0.6,1.6,1.6,1.6c1.4,0,2.3-1.2,2.3-3.1L240.7,71.8z"/>
		<path class="st2" d="M245.8,67.1v1.6c0.6-1.3,1.3-1.8,2.5-1.8c2,0,3.3,1.9,3.3,4.7c0,1.9-0.5,3.4-1.4,4.3c-0.5,0.5-1,0.7-1.8,0.7    c-1.1,0-1.7-0.3-2.4-1.4v4.4h-1.4V67.1H245.8z M245.9,72.5c0,1.3,0.1,1.6,0.6,2.2c0.4,0.5,0.9,0.8,1.5,0.8c1.3,0,2-1.3,2-3.8    c0-2.3-0.8-3.7-2.1-3.7c-0.7,0-1.3,0.4-1.6,1.1c-0.3,0.6-0.4,1-0.4,1.9V72.5z"/>
		<path class="st2" d="M255.1,64.8v2.3h1.8v1.1h-1.8v4.7c0,1.4,0.1,1.9,0.3,2.1c0.2,0.3,0.6,0.4,1.2,0.4c0.2,0,0.5,0,0.8-0.1v1.2    c-0.6,0.1-0.9,0.2-1.3,0.2c-1.1,0-1.8-0.3-2.1-1.1c-0.2-0.5-0.3-1.1-0.3-2.7v-4.7h-1.3v-1.1h1.3v-2.2L255.1,64.8z"/>
		<path class="st2" d="M259.5,71.9c0,2.4,0.7,3.6,2.2,3.6c1,0,1.5-0.5,1.9-1.9l1.3,0.3c-0.5,1.8-1.6,2.7-3.3,2.7    c-2.3,0-3.6-1.7-3.6-4.8c0-3.1,1.4-5.1,3.6-5.1c1,0,1.9,0.4,2.4,1.2c0.4,0.5,0.7,1.4,0.8,2.4c0.1,0.3,0.1,0.8,0.1,1.5H259.5z     M263.4,70.8c0-1.8-0.7-2.8-1.9-2.8c-1.1,0-1.8,0.9-2,2.8H263.4z"/>
		<path class="st2" d="M267.9,71.9c0,2.4,0.7,3.6,2.2,3.6c1,0,1.5-0.5,1.9-1.9l1.3,0.3c-0.5,1.8-1.6,2.7-3.3,2.7    c-2.3,0-3.6-1.7-3.6-4.8c0-3.1,1.4-5.1,3.6-5.1c1,0,1.9,0.4,2.4,1.2c0.4,0.5,0.7,1.4,0.8,2.4c0.1,0.3,0.1,0.8,0.1,1.5H267.9z     M271.8,70.8c0-1.8-0.7-2.8-1.9-2.8c-1.1,0-1.8,0.9-2,2.8H271.8z"/>
		<path class="st2" d="M276.6,63.8v7.9l3.3-4.6h1.5l-2.5,3.3l2.8,6h-1.5l-2.2-5l-1.5,2v2.9h-1.4V63.8H276.6z"/>
	</g>
</g>
</svg>