<svg xmlns="http://www.w3.org/2000/svg" viewBox="0 0 728.86 175.17"><defs><style>.cls-1{fill:#ee2e37;}.cls-2{fill:#00a05d;}.cls-3{fill:#fff;}</style></defs><g id="Layer_2" data-name="Layer 2"><g id="Layer_1-2" data-name="Layer 1"><path class="cls-1" d="M557.63,15c-9.91,0-15.89.24-17.9.72a6,6,0,0,0-4.56,3.79c-.72,2-1.07,5.87-1.07,11.73a35.45,35.45,0,0,0,.58,7.66c.74,2.94,3,4.62,6.79,5.05,2.8.32,8.21.51,16.25.51q11.31,0,15-.38a11.54,11.54,0,0,0,5.54-1.7,5.94,5.94,0,0,0,2.21-3.49,35.25,35.25,0,0,0,.58-7.58,66.51,66.51,0,0,0-.45-9.15A9.32,9.32,0,0,0,579,17.8a7.13,7.13,0,0,0-4.9-2.31c-2.27-.3-7.78-.45-16.48-.45m0-15Q577.48,0,585,.92q10.77,1.37,13.21,9.64,1.64,5.65,1.65,19.19c0,9-.56,15.46-1.65,19.23q-2.45,8.27-13.21,9.63-7.47.95-27.18.93-20.09,0-27.55-.93Q519.46,57.26,517,49c-1.11-3.77-1.65-10.31-1.65-19.56q0-13.25,1.65-18.86Q519.45,2.3,530.23.92,537.64,0,557.59,0M435,29.53H461.3c4.6,0,7.34-.16,8.22-.23a5.21,5.21,0,0,0,2.28-.67,3.91,3.91,0,0,0,1.71-2.12A14.12,14.12,0,0,0,474,22.2a12.24,12.24,0,0,0-.56-4.24,3.61,3.61,0,0,0-1.95-2,6.59,6.59,0,0,0-2.38-.51c-.89,0-3.53-.13-7.84-.13H435ZM416.23,58.68V.85h45.26c10.62,0,17,.14,19.08.32a14.77,14.77,0,0,1,6.09,2,10.49,10.49,0,0,1,4.81,5.5c.86,2.33,1.31,6,1.31,11a37.63,37.63,0,0,1-.83,9.27,8.86,8.86,0,0,1-3.14,4.75q-2.46,1.9-7.47,2.63c3.93.27,6.77,1.33,8.47,3.18a7.58,7.58,0,0,1,1.88,4,71.79,71.79,0,0,1,.41,9.86v5.38H473.64v-3.1a45,45,0,0,0-.37-6.88,6.08,6.08,0,0,0-1.43-3.16A4.92,4.92,0,0,0,469,44.25a63.82,63.82,0,0,0-7.64-.27H435v14.7ZM313.09.85h18.74V27.42A68.83,68.83,0,0,0,332.49,39c.49,2.26,2,3.75,4.66,4.46s7.94,1.06,15.9,1.06a113.79,113.79,0,0,0,13.5-.54c2.51-.35,4.3-1,5.33-2.09a5.91,5.91,0,0,0,1.46-2.67,28.86,28.86,0,0,0,.65-5.39c.15-2.59.23-4.73.23-6.39V.85H393V27.42A134.08,134.08,0,0,1,392,45.55a13.87,13.87,0,0,1-7.39,10.68,27.37,27.37,0,0,1-10,2.62q-6.46.67-21.29.69-11.12,0-17.15-.38a68.94,68.94,0,0,1-10.5-1.36c-6.56-1.46-10.41-5.21-11.52-11.2a51.22,51.22,0,0,1-.79-6.21c-.1-1.86-.24-6.19-.24-13Zm-93.94,0h68.08v13.6H237.62V22.8h47.1V35.51h-47.1v9.27h50v13.9H219.15Z"/><polygon class="cls-2" points="61.82 0.64 123.66 0.64 123.66 58.81 185.49 58.81 185.49 117 123.66 117 123.66 175.17 61.82 175.17 61.82 117 0 117 0 58.81 61.82 58.81 61.82 0.64"/><path class="cls-3" d="M99.57,52.24c-5-.83-7-2.78-10.54-3.11-14.91-.89-16.75,14.81-11.64,22,1.6,3.32,8.13,7.47,11.12,10A102,102,0,0,0,98.08,88c1,.48,0,1.93-1.87,1.23,0,2.5.46,4.09.46,6.57,7-.47,9.39-2.82,10-6.07,1.48-7.74-11-12.56-17.57-17.05-9.92-6.8-7.6-17.16-.61-14.47,4.76,2.82,5.57.34,11.6-.26,2.1.64,11.36-1.88-.54-5.74M89,90.53a48,48,0,0,1,.52,7.08c-2.58,1.44-.52,2.21.3,2.46,2.54,2.24,13.06,2.67,14.56,8.6,1.89,7.41-6.5,10.47-7.79,10.83,0,.17-.23-5-.41-7.54a1.12,1.12,0,1,0,0-2.23c-1.08,0-9.66-2.4-12.81-5.36-5-5.66-2.23-12,5.65-13.84m-.35,23.19.39,8.45c-.78.51-.82,1.31.12,2.1,3.91,3.22,9.84,5.21,12.5,10.12,1.75,4.14,0,9.71-5.18,10.56a17.08,17.08,0,0,0-.68-7.2c-.59-1.7-9.32-5.85-13.91-11.38-3.11-3.71-1.92-10.68,6.76-12.65m-.21,27.67v8.69c-1.08.46-1.22,2.41.52,3.39,5.15,5.78,12.47,5.91,17.42,7.62-1.54,1.17-6.9.83-8.81.6-8.21-1.08-13.61-3.61-15.67-7.29-2.6-5.49,1.43-12.23,6.54-13"/><path class="cls-3" d="M105.9,163.26l6.67,5.29H72.93l11.53-9.14,1.11.69,2.16,1,2.43.85a38.4,38.4,0,0,0,14.14,1.61,16.17,16.17,0,0,0,1.6-.31m-10-16.34v8.44l2,1.58-.59-.19-2.11-.88-1-.53-1-.62-1-.7-.92-.79-1-1.09c-.21-.14-.63-.35-.69-.62l.78-.52V139.12l-.79.17v-4.13c1.32.89,2.65,1.77,3.9,2.73a3.43,3.43,0,0,1,.59.55,15.78,15.78,0,0,1,.67,4.91c0,1.33-.28,2.64-.45,3.94Zm0-25.32v4.94c-.22-.15-.46-.3-.7-.44a47.72,47.72,0,0,1-4.43-2.92L91,123l-.55-11.61-.89.24v-1.88a45.45,45.45,0,0,0,4.68,1.47c.18,2.66.32,5.32.44,8,0,.91.18,1.82.29,2.72ZM85.53,66.37h58.06l-37.2,16.22-.32-.43-1.21-1.26-1.34-1.18-1.45-1.11L99,76.55c-2.9-1.76-5.89-3.4-8.72-5.27l-1.58-1.21-1.3-1.23-1-1.25Zm-43.63,0H73.37l.07.38L74,68.67l.79,1.81c.43.75.9,1.47,1.31,2.2l.55.79L78,75A86.07,86.07,0,0,0,86,81.5c.59.45,1.16.91,1.72,1.37,2.23,1.79,4.52,3.5,6.9,5.09l-.34,1v.76c.06,1.51.25,3,.38,4.49.08,1.18.08,2.36.09,3.54l1.11-.09v2.87l-2.29-.72a9.67,9.67,0,0,1-2.48-1.1l.32-.21c0-1.45,0-2.91-.13-4.37-.14-2-.42-4-.71-5.93l-1,.29V87.16Z"/><path class="cls-2" d="M643.2,172.68V92.09h23.33v30.75l33-30.75H728L690.49,126l38.37,46.72h-28.3l-26-32.28-8,7v25.32Zm-80.87,0V92.09h70.36v16.48H586.05v14.27h42.62V139H586.05v17.25h48.16v16.46Zm-78.32,0V92.09h70.37v16.48H507.74v14.27h42.63V139H507.74v17.25h48.17v16.46Zm-56.81,0V108.46H400.66V92.09h76.9v16.37H450.92v64.22Zm-80.89-45h15.74q12.52,0,12.52-9.73t-12.77-9.59H346.31Zm-23.82,45V92.09h42.42q16.13,0,24.62,6.41t8.36,18.81q0,12.8-8.24,19.65-8.4,6.94-24,6.95H346.31v28.77Zm-61.67-31.44h20.27l-10.33-27.81Zm-2.19-49.15h25.91l32.69,80.59H291.77l-5.66-14.77H255.17l-5.3,14.77H225.3Z"/></g></g></svg>