<svg xmlns="http://www.w3.org/2000/svg" viewBox="0 0 372.63 107.83"><defs><style>.cls-1{fill:#e1251b;}</style></defs><title>Asset 1</title><g id="Layer_2" data-name="Layer 2"><g id="logo"><path class="cls-1" d="M116.35,91.13c0,.08-.15.29-.23.51a.36.36,0,0,1-.26-.14l-.23.26h0a.11.11,0,0,1,0-.09v0s0,0,0,0a1.19,1.19,0,0,0-.49.34.89.89,0,0,0,0-.29,2.63,2.63,0,0,1-.69-.63l-.06-.2a1.6,1.6,0,0,1,.09-.49h-.06s-.08,0-.08-.08a1.62,1.62,0,0,1,0-.6s.09,0,.12-.06l.09-.14c0-.09,0,0,0-.15a3.9,3.9,0,0,0-.71-2.09,3.1,3.1,0,0,0-1-.58c-.2,0,0,.06-.17.06s-.17-.14-.29-.17-.11,0-.28,0a5.82,5.82,0,0,0-1.67,1.06,4.3,4.3,0,0,0-.57,1.32,1.14,1.14,0,0,0-.12.55,5.84,5.84,0,0,0,.12,1.32c0,.14.23.37.26.6.11.43,0,1.06.37,1.52l.66,2.07c0,.08.11.2.2.34.46,1.32.69,2.24,1.38,3.93a12.38,12.38,0,0,1,.74,3.93,6.84,6.84,0,0,1-.23,1.38c0,.11.09.26,0,.4a2.39,2.39,0,0,1-.91,1.21,4,4,0,0,1-.46.45.75.75,0,0,0-.23,0,3.84,3.84,0,0,1-1.55.38h-.63c-.2,0-1.29-.49-1.5-.49s.06.08-.14.08-.4-.31-.49-.45a10.41,10.41,0,0,1-1.4-1,6.1,6.1,0,0,1-1.24-1.95c-.14-.23-.25-.6-.48-1,0-.08.17-.17.08-.25a.86.86,0,0,0-.17-.21c.11-.22,0-.71,0-1s-.17-.17-.17-.37.08-.18.08-.29.06.11.21.2a2.36,2.36,0,0,1,0-.92s.08.09.17.23a1.44,1.44,0,0,0-.12-1c.12,0,0-.15.18-.15s0,.06.17.06c0-.2.11-.34.11-.57,0,.2-.11.37,0,.6s.09.06.12.08,0,.58.29.61a2.38,2.38,0,0,0,.17.63l.14-.15a4.64,4.64,0,0,0,.72,2.36c.2.2.43.86.63.86s0-.06,0-.15c.23.55,2.09,1.21,2.92,1.21a1.05,1.05,0,0,0,.35-.06l.14.12a4,4,0,0,1,.58-.26,1.72,1.72,0,0,0,.66-.8,2.19,2.19,0,0,0,0-.72c0-.2,0-.12,0-.14a2,2,0,0,0,0-.78,45.62,45.62,0,0,0-2.16-5.74c0-.14-1.63-4.88-1.63-6.25,0,0,0-.26,0-.63a6.47,6.47,0,0,1,.14-1,8.18,8.18,0,0,1,.86-2c0-.09-.08-.06-.08-.17.23-.09.45-.41.6-.41s-.06.15.08.15.75-.66,1-.66c.6,0,1.61-.12,1.81-.12s1.06.41,1.43.49a3.14,3.14,0,0,0,1,.46c1.29.14,1.92,3.39,1.92,4.48A8.21,8.21,0,0,1,116.35,91.13Z"/><path class="cls-1" d="M121.34,103.44c.08,0,.2,0,.28.11a.88.88,0,0,1-.34.4.65.65,0,0,0-.09.49,6.42,6.42,0,0,0-1.49,1.32c0,.09.06.29-.17.4a3.4,3.4,0,0,1-1.15.38c-1.92.14-2.93-2.27-3-3.53a8.18,8.18,0,0,1,.2-1.9l.31-1.2a13.4,13.4,0,0,1,1-3,2.47,2.47,0,0,1,0-.41c.11-.08.14-.31.34-.51a5.23,5.23,0,0,0,.66-.15,1.75,1.75,0,0,1,1.15.46,1.47,1.47,0,0,1,.69,1c0,.14-.11.31-.14.54a12.93,12.93,0,0,0-.29,1.55,3.91,3.91,0,0,1-.43,1.49c-.12.26-.17.78-.26,1-.34,1.17-.6,1.54-.4,2.23a12.87,12.87,0,0,0,3.64-2.61C121.45,101.89,122,102.89,121.34,103.44ZM120,93.14a2.34,2.34,0,0,1-1.14-.38c0-.08,0-.11-.09-.2a2.46,2.46,0,0,1-.83-1.43c-.12-.23,0-.72-.17-1a6.13,6.13,0,0,0,2.15-.31c.2.26.46.4.54.6s0,.54.29.86C120.3,92,121.42,93.05,120,93.14Z"/><path class="cls-1" d="M133.47,103.55c-.08.09.06.23,0,.26a2.12,2.12,0,0,0-.26.26.56.56,0,0,0,.23.06l0,0c-.05.06-.08.09-.11.06-.12.12,0,.35-.23.49.09.14,0,.32.11.46-.14.14-.37.26-.4.49s-.66.46-.89.71a1.72,1.72,0,0,0-.51.64c-.38,0-.95-.06-1.15-.06a3.69,3.69,0,0,1-1.75-1,8.63,8.63,0,0,1-.95-2.67,16.64,16.64,0,0,1-.17-2.52c-.09,0,0-.12-.06-.14-.77.89-1.69,2.2-2.49,3.15,0,0,0,.09,0,.2a9.2,9.2,0,0,1-.92,1.47,4.63,4.63,0,0,1-1,1c-.2,0-.34-.29-.48-.26s0,.09-.18.09c-.71.08-.83-1.35-.94-1.47a.7.7,0,0,1-.29-.51c0-.15.23-1.09.26-1.67a5.24,5.24,0,0,0,.37-.89c.12-.43.09-.94.2-1.37.55-1.58,1.35-3.88,2.13-5.91,0-.12,0-.38,0-.61a3.77,3.77,0,0,1,.8-.63c.14.2.32.38.52.63a.58.58,0,0,0,.08-.48,2.22,2.22,0,0,0,.72.4c0,.14-.11.34,0,.49h0c.09,0,.06,0,.17-.06l0,.31c0,.2-.14.41-.23.66-.09.49-.14,1.24-.26,1.81a.55.55,0,0,1-.17.4,3.33,3.33,0,0,0-.17,1.27c.43-.43,1.12-1.61,1.69-1.84.26-.12.57,0,.92-.23a1.07,1.07,0,0,1,.34.43.88.88,0,0,1,.41-.2c.14,0,.51.37.74.57v0s0,.06-.06.09.15.11.18.11c.68,1.35.51.83.6,1.61.08.2-.15,2.5-.06,3.67a7.2,7.2,0,0,0,.06,1.58.49.49,0,0,0,.37.06c.49,0,1.49-.81,2-1h0c-.05,0-.08,0-.05.06l0,.06h.11a12.26,12.26,0,0,0,1.06-.69A1.77,1.77,0,0,0,133.47,103.55Zm-4.56-6.4,0-.14-.2,0,0,.14Z"/><path class="cls-1" d="M145.44,102.78a2.88,2.88,0,0,0-.46.4,5.31,5.31,0,0,0,.31.46c-.14.2-.28.43-.43.69-.06.08-.06.17,0,.2a4.89,4.89,0,0,1-.43.46c.12.11.2.08.32,0,0,.11,0,.23-.23.23s0-.06-.12-.15c-.08.09-.05.23-.17.35a1.69,1.69,0,0,1-.49.46,3.65,3.65,0,0,1-1.23.66,6.27,6.27,0,0,1-2.07-.49,2.36,2.36,0,0,1-.54-.55c-.35-.68-.63-1.46-.89-2.06-.12-.2,0-.6,0-.8a.86.86,0,0,0-.12-.46,25.48,25.48,0,0,0-3.07,4.1,2.41,2.41,0,0,1-.57.34l-.06,0s0,.06.09.09c-.26,0-.6-.09-.92-.09-.11-.26-.49-.43-.74-.69a1.56,1.56,0,0,1-.46-.69,3.24,3.24,0,0,1-.2-1,17.17,17.17,0,0,1,.57-3.44,2.12,2.12,0,0,0,.49-1,3,3,0,0,1-.06-.51,1.54,1.54,0,0,1,.43-.55c.14-.14.12-.49.2-.74s.17-.12.26-.23-.06-.12,0-.23c.6-1.06,1-2.87,2.3-2.87.2,0,.34.17.57.08,0,.23.32.49.46.72a4.28,4.28,0,0,1,.08.43,11.45,11.45,0,0,1-1.17,3c-.23.48-.55,1.12-.78,1.66s-.57,1.21-.89,1.92a.61.61,0,0,0,.06.35A4.5,4.5,0,0,0,135,104v.2h.06a32.28,32.28,0,0,0,4.88-6.31,12.14,12.14,0,0,1,.83-1.4c.11.11.31.17.46.31s0-.14,0-.23c.11.09.11.23.31.23s0-.08.12-.08a2.09,2.09,0,0,0,.83.54,2.56,2.56,0,0,1,.4,1.09c0,.12-.43.8-.57,1.23a11.28,11.28,0,0,0-.66,2.13l0,.06a.13.13,0,0,0-.09.11,17,17,0,0,0-.23,1.78.23.23,0,0,0,.2.26.42.42,0,0,0,.2,0,6.54,6.54,0,0,0,.78-.14l1-.29a7.18,7.18,0,0,0,1.69-.88Z"/><path class="cls-1" d="M161.13,96.72c0,.09.06.12.14.12-.08.26-.37.2-.06.46-.31.14-.71.31-1,.46,0,.11.11.14.23.23-.2.48-.89.63-1.47.74-.11.2-.45.66-.65.66s0-.06-.09-.14-.12.08-.12.26a18.42,18.42,0,0,0-2,.63c-.08,0,0,.08,0,.17s0-.06-.23-.06a8.45,8.45,0,0,0-1.32.46l-.22.35a2.4,2.4,0,0,0-.84.46c-.23.94-.54,2.75-.54,3s.29,1.29.29,1.43-.35.41-.35.66c-.09,0-.31.06-.46.06s-.23-.34-.34-.46a2.84,2.84,0,0,1-.86-2.24c-.12-.43.11-1.54.08-3,0-.2-.8-1.15-.8-1.32s.14-.72.14-1.15a.47.47,0,0,0,.15-.2,1.13,1.13,0,0,1,.34-.11c.23,0,0,.08.26.08s.37-.23.4-.43c.32-.86.66-3.56,1-4.79s.74-2.55,1.09-3.84a19.58,19.58,0,0,1,.63-2.13c.2-.57.23-1.52.8-1.89a.94.94,0,0,1,.49-.2c.23,0,.43.46.63.46s.2,0,.32,0a.23.23,0,0,1-.09,0v.14c0,.26.54,1.12.54,1.38a3.91,3.91,0,0,1-.34,1.2,1.71,1.71,0,0,1,.09.49c-.58,2-1.18,3.85-1.75,5.65a23.39,23.39,0,0,1-.58,2.53V97c.2.12.32.06.58.06a1.58,1.58,0,0,1,.6-.09c.2,0,0,.15.26.15s.46-.15.71-.18c1.3-.23,2.73-.34,4.54-.48C161.36,96.55,161.24,96.61,161.13,96.72Z"/><path class="cls-1" d="M165.46,104.36c0,.14.11.22.32.28a3.46,3.46,0,0,0-.32.69c-.49-.11-.75.52-.75,1a3.47,3.47,0,0,1-1.12.17c-.14.08,0,.11.12.11-.32,0-.75.29-1.06.32V107s0,0-.12,0c-.34,0-1.17-.57-1.26,0l-.31-.43a2.85,2.85,0,0,1-1.78-1.17c-.52-.46-.26.25-.81-2a5,5,0,0,1,.23-2.21,14.39,14.39,0,0,1,1-2.55,19.18,19.18,0,0,1,.94-1.81,7.83,7.83,0,0,0,.75-1.06c.43-.38.49-.66,1.06-1,.26-.11.86-.28.78-.6,0,0-.06,0-.06.06s0,.08.11.08c.23,0,0-.08.18-.08s.54.26.8.34c.09.26,0,.55.2.55s0-.09.2-.09.23.14.35.26c0,1.2.57.57.57,1.32a18.48,18.48,0,0,1-.55,2.32,13.11,13.11,0,0,1-1.32,1.93,30,30,0,0,0-2.46,2.89c0,.23.51.58.86.72a2.14,2.14,0,0,0,.83.09c.32,0,.55-.29,1-.09.78-.23,1.5-.49,2.07-.63a.44.44,0,0,0,.29.11C165.86,104.07,165.72,104.27,165.46,104.36Z"/><path class="cls-1" d="M174.55,98.39a3.94,3.94,0,0,0-1.2,0c0-.2-.06-.46-.14-.83a7,7,0,0,0-2.82,2.89c0-.08,0-.14-.11-.14-.09.17-.12.29-.06.34a.08.08,0,0,0-.08,0,.89.89,0,0,1-.09.12c0,.08.09.11.09.23s-.09,0-.21,0h0c-.06,0-.09,0-.09.06s.11.17.11.2a8,8,0,0,1-.68,1.06c0,.12.08.18.05.21a2,2,0,0,1-.48.6c-.15.2-.12.49-.23.71a3.62,3.62,0,0,0-.49,2.53,1,1,0,0,1-.55.17,5,5,0,0,1-.8-.31c-.11-.12,0-.49-.32-.41a5.52,5.52,0,0,1-.48-1.49c0-.17.46-1.75.51-2.52a20.49,20.49,0,0,0,.55-3.24c.08-.66.2-1.52.29-2.36.08-.54.11-1.17.25-1.72h.35a1.5,1.5,0,0,1,1,.8,5.4,5.4,0,0,1,.29,1.27c0,.31-.09.57-.09,1a4.2,4.2,0,0,1,2.78-1.92A4,4,0,0,1,174.67,97c.11.14.17.4.31.63C174.87,97.9,174.44,98.13,174.55,98.39Z"/><path class="cls-1" d="M188.44,101.6l-.34.75a18.39,18.39,0,0,0-.75,3.18,1,1,0,0,0,.2.58v.11a.94.94,0,0,0,0,.52c0,.08.06.11.09.11,0,.55-.58.63-.72,1-.26-.32-.43-.09-.66-.09s-.32-.17-.46-.37a2.38,2.38,0,0,1-.29-.37c-.23,0-.11.08-.11.11-.15.06-.26,0-.35-.29a7.66,7.66,0,0,1-.46-1.37c0-.23.09-.09.12-.21a14.33,14.33,0,0,1,.2-2.41c.32-1.54,1.23-4.18,1.23-4.41V97.15a1,1,0,0,0-.6-.14,6.85,6.85,0,0,0-1.49.4c-.35.15-.72.26-1.15.4s-.92.63-1,.86l-.32,1.09a9.66,9.66,0,0,0-.46,1.53,26.29,26.29,0,0,0-1,2.49c-.92,1.32-1.58,3.22-2.5,3.56.09-.12.21-.12.21-.23l-.09-.11a1.07,1.07,0,0,1-.57.31c-.15,0-.58-.31-.84-.34a4.84,4.84,0,0,1-1.14-2.21c0-.23,0-.66,0-1a1,1,0,0,0-.12-.48c0-.46,0-1.21,0-1.44s.06-1.75.15-2.64a20.54,20.54,0,0,1,.11-2.35c0-.14-.11-.32-.11-.52s.11-.23.2-.37a3.78,3.78,0,0,1,.11-.92c.09-.31.35-.66.43-.92.15,0,.35-.11.58-.11s.4.83.94.83c.09.2.06.57.17.72,0,.49.06,1.38.06,1.61a10.88,10.88,0,0,1-.11,1.43.06.06,0,0,1,.05.06s0,0,0,0a10.51,10.51,0,0,0-.2,2.7c0,.09,0,.23,0,.37v.52c.08.12,0,.09.11.2a1.77,1.77,0,0,0,.4-.92s0,.06,0,.06a.06.06,0,0,0,.09,0c.2-.46.31-.83.54-1.43a5.05,5.05,0,0,0,.29-1c.23-.43.37-1.52.63-2a3.46,3.46,0,0,1,1.81-1.6,13.08,13.08,0,0,1,4.59-.87c.89,0,1.09.32,2.47.87a2.75,2.75,0,0,0,.6.74,1.71,1.71,0,0,1,.26,1.21A19.84,19.84,0,0,1,188.44,101.6ZM180,96.06l-.08.23-.12-.08L180,96Zm11.11-2.89c-.12.14-.32.4-.55.4s-.26.08-.4.08a4.63,4.63,0,0,1-1.49-.57c-1-.6-.46-1.49-.75-2.15h0a.31.31,0,0,1,.12,0l.83-.8c.34.09.83.09,1.17.17,0,.23.15.49.29.49s-.06-.06.15-.06.48.84.6,1.27a1.84,1.84,0,0,1,.08.63C191.22,92.82,191.05,93,191.14,93.17Z"/><path class="cls-1" d="M198.48,95.37a4.42,4.42,0,0,1-.23,2.13,1,1,0,0,1-.6.2,1.81,1.81,0,0,1-.86-.46.35.35,0,0,0-.23.26c-.26,2.15,0,4.39-.4,6.57-.15,1.06-.46,3.76-2.15,3.76-.23,0-.18-.09-.29-.12s0,0-.23,0c-.52,0-1.21-.8-1.32-.8A6.33,6.33,0,0,1,190,103a4.1,4.1,0,0,1,.6-1.75.52.52,0,0,0,.23-.06,2.35,2.35,0,0,1-.11.57c.08.12.14.09.26.2s0,.21,0,.46c.15.15.26.09,0,.35a.71.71,0,0,1,.12.51c.11.23.43.46.29.78l.11.11a.41.41,0,0,1,.32-.17c.31.55.31,1.29.89,1.67a3,3,0,0,0,.71-1.24c.69-1.63.55-4.59.55-5.88,0-.43.2-1,.2-1.43,0-.15-.09-.32-.09-.46a9.8,9.8,0,0,1,.18-1.32c0-.35.08-2.9.8-2.9.23,0,.2,0,.31.11a2.36,2.36,0,0,1,1.5.43,6.54,6.54,0,0,1,1.26.92,1.16,1.16,0,0,1,0,.32,1.28,1.28,0,0,1,.46.8C198.6,95.23,198.57,95.29,198.48,95.37ZM191.74,104h-.12v-.43h.12Z"/><path class="cls-1" d="M209.33,105.76c-.12.09-.15.32-.23.43a3.48,3.48,0,0,1-1.78.6,2.91,2.91,0,0,1-1.92-1c-.21-.14-.32-.86-.66-.86a9.55,9.55,0,0,1-.23-1.15,11.52,11.52,0,0,1,1.37-4c.09-.09,0-.35.15-.46a12,12,0,0,0,.66-1c.11-.08.11,0,.23-.08s.05-.2.17-.35.51-.4.72-.66.05-.37.17-.57c-.09,0-.26-.14-.38.06,0-.09,0-.15,0-.17s-.09.11-.09.22c0-.14-.06-.2-.2-.2l.06,0s.05,0,.11-.09c-.14-1.09,1.81-1.46,2.13-1.78.14.32.37.11.68.26.15.11.64.6.89.86,0,0,0,.06.06.11a.49.49,0,0,0,.12.2c.08,0,.2,0,.28.09a6.23,6.23,0,0,1,1.49,3.59C213.08,101.8,211.42,103.92,209.33,105.76Zm1-8c-.32.6-1,1.35-1.23,1.78a31.06,31.06,0,0,0-1.81,3.7v.26a8.73,8.73,0,0,1,1.15-.86c.2,0-.15.17.08.17s1.44-1.87,1.49-2a13.42,13.42,0,0,0,.66-2A3.79,3.79,0,0,0,210.36,97.73ZM210,97.5v-.43h-.14v.43Z"/><path class="cls-1" d="M225.91,103.55c-.09.09.06.23,0,.26a2.12,2.12,0,0,0-.26.26.52.52,0,0,0,.23.06l0,0c-.06.06-.09.09-.11.06-.12.12,0,.35-.23.49.08.14,0,.32.11.46-.14.14-.37.26-.4.49s-.66.46-.89.71c-.2.09-.43.49-.52.64-.37,0-.94-.06-1.14-.06a3.77,3.77,0,0,1-1.76-1,8.36,8.36,0,0,1-.94-2.67,14.39,14.39,0,0,1-.17-2.52c-.09,0,0-.12-.06-.14-.78.89-1.69,2.2-2.5,3.15,0,0,0,.09,0,.2a8.54,8.54,0,0,1-.92,1.47,4.63,4.63,0,0,1-1,1c-.2,0-.34-.29-.49-.26s0,.09-.17.09c-.72.08-.83-1.35-.95-1.47a.73.73,0,0,1-.28-.51c0-.15.23-1.09.26-1.67a6.2,6.2,0,0,0,.37-.89c.11-.43.08-.94.2-1.37.54-1.58,1.35-3.88,2.12-5.91,0-.12,0-.38,0-.61a3.8,3.8,0,0,1,.81-.63c.14.2.31.38.51.63a.55.55,0,0,0,.09-.48,2.22,2.22,0,0,0,.72.4c0,.14-.12.34,0,.49h0c.08,0,.05,0,.17-.06l0,.31c0,.2-.15.41-.23.66-.09.49-.15,1.24-.26,1.81a.59.59,0,0,1-.17.4,3.34,3.34,0,0,0-.18,1.27c.44-.43,1.12-1.61,1.7-1.84.26-.12.57,0,.92-.23a1.17,1.17,0,0,1,.34.43.84.84,0,0,1,.4-.2c.15,0,.52.37.75.57v0s0,.06-.06.09.14.11.17.11c.69,1.35.52.83.61,1.61.08.2-.15,2.5-.06,3.67a7.2,7.2,0,0,0,.06,1.58.48.48,0,0,0,.37.06c.49,0,1.49-.81,2-1h0c-.06,0-.09,0-.06.06l0,.06h.12a12.26,12.26,0,0,0,1.06-.69A1.58,1.58,0,0,0,225.91,103.55Zm-4.56-6.4,0-.14-.2,0,0,.14Z"/><path class="cls-1" d="M249.06,104.67c-.06.14,0,.23.14.29a1.57,1.57,0,0,1-.34.34.25.25,0,0,1-.06.26,7.15,7.15,0,0,1-1.14.52c-.21,0-.78-.26-1-.26s.11.11-.09.14a5.24,5.24,0,0,1-1.32-.94,6.31,6.31,0,0,1-.91-2.84,2.13,2.13,0,0,0-.18-1c-.23.26-.31.51-.54.83s-1.32,1.52-1.9,2.35a5,5,0,0,1-1.29,1.35c-.08.12,0,.17-.08.2a3.08,3.08,0,0,1-1,.46,3,3,0,0,1-2.18-1.4c-.14-1.32.61-3.5.66-4.37.09-.14-.05-.14-.05-.23l.08-.11c0-.12-.11-.17-.11-.32-.92,1-1.95,2.41-2.87,3.59a1.56,1.56,0,0,1-.15.4l-.63.75V105c-.37.34-.69,1-1,1.32a2.12,2.12,0,0,1-.83.43c-.15,0-.63-.32-.86-.55s-.35-.66-.38-1.09a12.42,12.42,0,0,1,.81-4c.46-1.47.94-2.73,1-3.19s.29-.89.37-1.32c0,0,.12,0,.15-.17A5.06,5.06,0,0,1,234,94a5.33,5.33,0,0,1,.66-.17.65.65,0,0,1,.51.14.28.28,0,0,0,.09.14c.43.09.72.86.72,1a3.93,3.93,0,0,1-.12.94,8,8,0,0,1-.28,1.24,16.47,16.47,0,0,0-.69,2.35s.08-.17.31-.2A32.71,32.71,0,0,0,238,95.83a2.43,2.43,0,0,1,1.09,0,3.48,3.48,0,0,1,1.46.81,5,5,0,0,1,.43,1.14c0,.21-.29,2.1-.37,3.13-.32.09-.29.58-.32.92v0a.11.11,0,0,0,0,.09c.2-.21.17-.35.52-.35l3.73-4.53a2.47,2.47,0,0,1,.63,0,2.26,2.26,0,0,1,.52.37s.25,0,.37.09a1.9,1.9,0,0,1,.49.43c.2.23.14.51.4.71-.09,0,0,.18.06.32s-.32,1.86-.32,2.67a7.45,7.45,0,0,0,0,.92,4.43,4.43,0,0,0,0,.77c.09.77.17,1.12,1.18,1a5.34,5.34,0,0,0,1.32-.46C249.32,104.18,249.09,104.47,249.06,104.67Zm-5.57-2.58h-.08l-.17.26.14.08Z"/><path class="cls-1" d="M265.16,103.58a.9.9,0,0,1,0,.32,1.82,1.82,0,0,1-.43.68c0,.38-.15.52-.12.72a3.23,3.23,0,0,0-.8.52.06.06,0,0,0,.06.06s0,0,.05,0c-.14,0-.34.23-.54.32a3.4,3.4,0,0,1-1.24.29,3.06,3.06,0,0,1-1.06-.35,5.91,5.91,0,0,1-1.35-2.69,7.44,7.44,0,0,1-.25-.89c-1.61,1.52-4.22,4.36-6.46,4.36-.2,0-.72.14-.86.14s-.66-.14-.86-.14c-.49,0-1.41-.86-1.84-1.12-.2-.09-.54-.12-.77-.23a1.65,1.65,0,0,1-.17-.69,2.5,2.5,0,0,1,.17-1c.37-.61.08-1.61.2-2.38.08-.21.34-.72.08-.81,0-.08.06-.17.26-.26a21,21,0,0,1,2.3-4.56,10.79,10.79,0,0,1,1.66-1.72c.2,0,0,.09.15.09s.46-.43.66-.43.08,0,.28,0a.36.36,0,0,0,.4-.28c.12.11.32.43.52.43s.12,0,.12-.15c.2.38.4.43.6.43.26.2.23.75.23,1,0,2.27-3.56,7.14-4.68,8.81.26.14.49.11.57.23v0s0,0,.06,0l.15-.14c.08.12,0,.14.2.14a7.67,7.67,0,0,0,3.15-1.6c.12-.09.2-.32.29-.43a7.78,7.78,0,0,0,1.18-1,32.41,32.41,0,0,0,2.87-3.56.69.69,0,0,0,.08-.34s.12-.11.26-.11c.26-.38.69-.75,1.06-1.18a4,4,0,0,0,.52.29c.08,0,.11-.12.2-.23a.17.17,0,0,1,0,.26c.11.11.37.25.4.17.55.66.55.77.55,1.14,0,1.15-1,3.28-1,5.28,0,.15,0,.46,0,.72l.52-.06c0,.09-.12.09.08.09H263c.55,0,1.15-1.29,1.61-1.61.09.09.06.18,0,.26l.15.12a1.75,1.75,0,0,1,0,.34.43.43,0,0,0,.34.09s0,.08.06.2-.06.2-.06.28Zm-16.22-2.44h-.11v-.26h.11Zm14.52-8c-.2,0,0,.08-.2.08s-.37-.14-.57-.14-.75-.29-.95-.29-.14.14-.26.14-.11-.54-.48-.57a.89.89,0,0,0,0-.37c-.2-.35.2-.81,0-1.06a.43.43,0,0,0,.28-.15.47.47,0,0,1-.14-.28c.26-.15.66-.52.86-.52s1.35.69,1.46.69.09-.06.09-.15c.09.09.11.26.2.41a1.28,1.28,0,0,0,.32.17c0,.37.2.86.2,1.06S263.81,93.17,263.46,93.17Z"/><path class="cls-1" d="M271.7,104.36c0,.14.11.22.31.28a4.2,4.2,0,0,0-.31.69c-.49-.11-.75.52-.75,1a3.51,3.51,0,0,1-1.12.17c-.14.08,0,.11.12.11-.32,0-.75.29-1.07.32V107s0,0-.11,0c-.34,0-1.18-.57-1.26,0l-.32-.43a2.9,2.9,0,0,1-1.78-1.17c-.51-.46-.26.25-.8-2a4.81,4.81,0,0,1,.23-2.21,13.5,13.5,0,0,1,1-2.55,19.62,19.62,0,0,1,.95-1.81,8.83,8.83,0,0,0,.75-1.06c.43-.38.48-.66,1.06-1,.26-.11.86-.28.77-.6,0,0,0,0,0,.06s0,.08.11.08-.06-.08.17-.08a8.15,8.15,0,0,1,.81.34c.08.26,0,.55.2.55s0-.09.2-.09.23.14.34.26c0,1.2.58.57.58,1.32a18.48,18.48,0,0,1-.55,2.32,14,14,0,0,1-1.32,1.93,30.6,30.6,0,0,0-2.47,2.89c0,.23.52.58.86.72a2.22,2.22,0,0,0,.84.09c.31,0,.54-.29,1-.09.78-.23,1.49-.49,2.07-.63a.42.42,0,0,0,.28.11C272.1,104.07,272,104.27,271.7,104.36Z"/><path class="cls-1" d="M286.36,95.37a4.68,4.68,0,0,1-.23,2.13,1.08,1.08,0,0,1-.61.2,1.81,1.81,0,0,1-.86-.46.35.35,0,0,0-.23.26c-.26,2.15,0,4.39-.4,6.57-.14,1.06-.46,3.76-2.15,3.76-.23,0-.17-.09-.29-.12s0,0-.23,0c-.51,0-1.2-.8-1.32-.8a6.38,6.38,0,0,1-2.21-3.93,4,4,0,0,1,.61-1.75.56.56,0,0,0,.23-.06,3.08,3.08,0,0,1-.12.57c.09.12.14.09.26.2s0,.21,0,.46.26.09,0,.35a.74.74,0,0,1,.11.51c.12.23.43.46.29.78l.12.11a.4.4,0,0,1,.31-.17c.32.55.32,1.29.89,1.67a3.16,3.16,0,0,0,.72-1.24c.69-1.63.54-4.59.54-5.88,0-.43.2-1,.2-1.43,0-.15-.08-.32-.08-.46a9.5,9.5,0,0,1,.17-1.32c0-.35.09-2.9.8-2.9.23,0,.2,0,.32.11a2.34,2.34,0,0,1,1.49.43,6,6,0,0,1,1.26.92,1.16,1.16,0,0,1,0,.32,1.28,1.28,0,0,1,.46.8C286.47,95.23,286.44,95.29,286.36,95.37ZM279.61,104h-.11v-.43h.11Z"/><path class="cls-1" d="M299,102.78a3.41,3.41,0,0,0-.46.4,5.53,5.53,0,0,0,.32.46,5.48,5.48,0,0,0-.43.69c-.06.08-.06.17,0,.2s-.23.26-.43.46c.11.11.2.08.31,0,0,.11,0,.23-.23.23s0-.06-.11-.15c-.09.09-.06.23-.17.35a1.69,1.69,0,0,1-.49.46,3.68,3.68,0,0,1-1.24.66A6.21,6.21,0,0,1,294,106a2.38,2.38,0,0,1-.55-.55c-.34-.68-.63-1.46-.89-2.06-.11-.2,0-.6,0-.8a.86.86,0,0,0-.12-.46,24.91,24.91,0,0,0-3.07,4.1,2.41,2.41,0,0,1-.57.34l-.06,0s0,.06.09.09c-.26,0-.61-.09-.92-.09-.12-.26-.49-.43-.75-.69a1.65,1.65,0,0,1-.46-.69,3.54,3.54,0,0,1-.2-1,17.18,17.18,0,0,1,.58-3.44,2.1,2.1,0,0,0,.48-1,2.94,2.94,0,0,1-.05-.51,1.44,1.44,0,0,1,.43-.55c.14-.14.11-.49.2-.74s.17-.12.26-.23-.06-.12,0-.23c.6-1.06,1-2.87,2.29-2.87.2,0,.35.17.58.08,0,.23.31.49.45.72s.09.23.09.43a11.17,11.17,0,0,1-1.18,3c-.23.48-.54,1.12-.77,1.66s-.57,1.21-.89,1.92a.54.54,0,0,0,.06.35,4.5,4.5,0,0,0-.43,1.17v.2h.05a31.53,31.53,0,0,0,4.88-6.31,13.77,13.77,0,0,1,.83-1.4c.12.11.32.17.46.31s0-.14,0-.23c.12.09.12.23.32.23s0-.08.11-.08.29.4.83.54a2.46,2.46,0,0,1,.41,1.09c0,.12-.43.8-.58,1.23a12.06,12.06,0,0,0-.66,2.13l0,.06a.14.14,0,0,0-.08.11,14.63,14.63,0,0,0-.23,1.78.23.23,0,0,0,.2.26.39.39,0,0,0,.2,0,6.54,6.54,0,0,0,.77-.14l1-.29a7.38,7.38,0,0,0,1.69-.88Zm-6.31-8.93c-.2,0-.57.06-.78.06s-.6-.26-.8-.29a1.94,1.94,0,0,0-.26-.86l-.26-.51c0-.32.58-.89.78-1.15a2.59,2.59,0,0,0,1,.2c0,.09.23.26.46.26,0,0,.17.31,0,.43,0,.14.29.23.43.34C292.93,92.79,292.9,93.39,292.64,93.85Zm4-.14c-.12.14-.26.57-.46.57h-.32a3.37,3.37,0,0,1-1.09-.48,1.36,1.36,0,0,0-.11-.89,4.71,4.71,0,0,0-.43-.83c.11-.09.48-.23.74-.38,0-.11,0-.2,0-.28a.81.81,0,0,0,.41-.26c.05.08,0,.17-.06.26a1.34,1.34,0,0,0,.89.63c0,.11.14.25.46.34Zm-.35-2-.08.2-.12,0,.12-.2Z"/><path class="cls-1" d="M310.57,89.41a2,2,0,0,0-.4.66c0,1.06-.69,2-1.38,3.9-.08.11,0,.43-.06.63L308.36,96c-.08.31-.26.74-.34,1-.15.6-.29,1.18-.46,1.78a22.18,22.18,0,0,0-.43,2.9c.08.14.2.31.11.43,0,.66-.28,1.83-.28,2l.05.48a2.66,2.66,0,0,0,1,.2A13.27,13.27,0,0,0,312,103a5.88,5.88,0,0,0-.15.94,2.45,2.45,0,0,1-.74.92,1,1,0,0,0-.26.52c-.35.14-.86.31-.95.57a9,9,0,0,1-1.58.46l-.71.09c-.2,0,0-.09-.18-.06a6.13,6.13,0,0,1-1.49-.69c-.14-.23-.51-.66-.83-1.15a5.69,5.69,0,0,1-.43-1.37c-.11-.66-.2-1.09-.23-1.35a7.27,7.27,0,0,0-.83,1.46,12.64,12.64,0,0,1-1.29,1.92,3,3,0,0,0-.63.78c.08.11.17.14.25,0-1,.69-.91,1.21-1.57,1.27-.15,0-.64-.09-.95-.09-1-.89-1.35-1.41-1.44-2.24-.22-2.18,1.7-6,2.67-7.72a6.72,6.72,0,0,1,.92-1.17,2.21,2.21,0,0,1,.55-.37,1.24,1.24,0,0,1,.63-.12c.14,0,.08.23.31.23s.12-.09.12-.2c.26.23.77.26,1.09.46a4.39,4.39,0,0,0,.66.69c.08-.12.06-.06.14-.15a51.59,51.59,0,0,1,3.59-9.15c.46,0,2,.14,2.09,1.12A2.47,2.47,0,0,1,310.57,89.41Zm-7.2,8.75c-.14.14-.43.4-.55.37,0,.12.06.2-.05.32a14.83,14.83,0,0,0-.89,1.34,10.64,10.64,0,0,0-.75,1.84c0,.09.09.12.09.23a3.7,3.7,0,0,0-.26.83,3.61,3.61,0,0,1,1-1.2c0-.2.12-.6.26-.6s.23.11.2,0v-.18c.35-.14.26-.34.4-.77.12.11-.11.2.12.17s.23-.34.14-.49c.12-.11.4-.2.49-.57-.12-.14,0-.37,0-.52A2.2,2.2,0,0,0,303.37,98.16Z"/><path class="cls-1" d="M323.11,103.87c-.15.14-.2.26-.12.4a8,8,0,0,1-1.09,1s.15.2.23.2c-.6.08-1.58,1-1.83,1h-1.21c-1.18,0-2.24-2.38-2.24-2.58a10.24,10.24,0,0,0-.08-1.46c-.32.54-.63.94-1,1.52s-1.78,2.61-2.64,2.61c-.14,0-.46.11-.6.11-.95,0-1.26-.6-1.81-1.06,0-.23-.23-.72-.23-.86,0-1.75,2.33-5.68,3.3-7A7.15,7.15,0,0,1,315,96.61a4.85,4.85,0,0,0,.83-.72c.09-.08,0-.17.06-.26.26-.11.46,0,.6-.17a1,1,0,0,0,.35-.4H317a.82.82,0,0,0,.48.26c.15,0,.32.05.46.05.35-.37.12-.57.49-.57.2,0,.06.23.26.23s0-.09.17-.09a2.33,2.33,0,0,1,1.26.58c.09.14.23.54.12.66s.08-.12.08.11-.6,2.1-.83,3.19c-.31,1.52-.63,4.39-.63,4.56s.09.63.09.89a2.2,2.2,0,0,0,.86,0,30.51,30.51,0,0,0,3.78-1.58C323.54,103.55,323.19,103.67,323.11,103.87Zm-6.57-5.37c-.12-.11,0-.23,0-.31a22.89,22.89,0,0,0-2.53,4l.17.2a36.32,36.32,0,0,0,2.53-4.1Z"/><path class="cls-1" d="M339.63,104.67c-.05.14,0,.23.15.29a1.88,1.88,0,0,1-.35.34.27.27,0,0,1-.05.26,7.17,7.17,0,0,1-1.15.52c-.2,0-.78-.26-1-.26s.12.11-.08.14a4.9,4.9,0,0,1-1.32-.94,6.19,6.19,0,0,1-.92-2.84,2.1,2.1,0,0,0-.17-1c-.23.26-.32.51-.55.83s-1.32,1.52-1.89,2.35a5.34,5.34,0,0,1-1.29,1.35c-.09.12,0,.17-.09.2a3,3,0,0,1-1,.46,3,3,0,0,1-2.19-1.4c-.14-1.32.61-3.5.67-4.37.08-.14-.06-.14-.06-.23l.08-.11c0-.12-.11-.17-.11-.32-.92,1-1.95,2.41-2.87,3.59a1.93,1.93,0,0,1-.14.4l-.64.75V105c-.37.34-.68,1-1,1.32a2.12,2.12,0,0,1-.83.43c-.14,0-.63-.32-.86-.55s-.34-.66-.37-1.09a12.11,12.11,0,0,1,.8-4c.46-1.47.95-2.73,1-3.19s.29-.89.38-1.32c0,0,.11,0,.14-.17a5.06,5.06,0,0,1,.63-2.38,5.33,5.33,0,0,1,.66-.17.68.68,0,0,1,.52.14.28.28,0,0,0,.08.14c.43.09.72.86.72,1a3.93,3.93,0,0,1-.12.94,8,8,0,0,1-.28,1.24,16.47,16.47,0,0,0-.69,2.35s.09-.17.32-.2a34.39,34.39,0,0,0,2.75-3.59,2.43,2.43,0,0,1,1.09,0,3.43,3.43,0,0,1,1.46.81,4.21,4.21,0,0,1,.43,1.14c0,.21-.28,2.1-.37,3.13-.32.09-.29.58-.32.92v0a.11.11,0,0,0,0,.09c.2-.21.18-.35.52-.35l3.73-4.53a2.46,2.46,0,0,1,.63,0c.15,0,.4.28.52.37s.26,0,.37.09a1.9,1.9,0,0,1,.49.43c.2.23.14.51.4.71-.09,0,0,.18.06.32s-.32,1.86-.32,2.67a7.45,7.45,0,0,0,0,.92,4.43,4.43,0,0,0,0,.77c.09.77.17,1.12,1.18,1a5.21,5.21,0,0,0,1.32-.46C339.89,104.18,339.66,104.47,339.63,104.67Zm-5.56-2.58H334l-.17.26.14.08Z"/><path class="cls-1" d="M346.29,104.36c0,.14.11.22.31.28a4.2,4.2,0,0,0-.31.69c-.49-.11-.75.52-.75,1a3.51,3.51,0,0,1-1.12.17c-.14.08,0,.11.12.11-.32,0-.75.29-1.06.32V107s0,0-.12,0c-.34,0-1.17-.57-1.26,0l-.32-.43a2.9,2.9,0,0,1-1.78-1.17c-.51-.46-.25.25-.8-2a5,5,0,0,1,.23-2.21,14.39,14.39,0,0,1,1-2.55,19.18,19.18,0,0,1,.94-1.81,8.83,8.83,0,0,0,.75-1.06c.43-.38.49-.66,1.06-1,.26-.11.86-.28.78-.6,0,0-.06,0-.06.06s0,.08.11.08c.23,0-.05-.08.18-.08s.54.26.8.34c.08.26,0,.55.2.55s0-.09.2-.09.23.14.34.26c0,1.2.58.57.58,1.32a18.48,18.48,0,0,1-.55,2.32,14,14,0,0,1-1.32,1.93,30,30,0,0,0-2.46,2.89c0,.23.51.58.86.72a2.14,2.14,0,0,0,.83.09c.31,0,.54-.29,1-.09.78-.23,1.5-.49,2.07-.63a.44.44,0,0,0,.29.11C346.69,104.07,346.55,104.27,346.29,104.36Z"/><path class="cls-1" d="M358.8,103.87c-.15.14-.2.26-.12.4a8,8,0,0,1-1.09,1s.15.2.23.2c-.6.08-1.58,1-1.83,1h-1.21c-1.18,0-2.24-2.38-2.24-2.58a10.24,10.24,0,0,0-.08-1.46c-.32.54-.63.94-1,1.52s-1.78,2.61-2.64,2.61c-.14,0-.46.11-.6.11-.95,0-1.26-.6-1.81-1.06,0-.23-.23-.72-.23-.86,0-1.75,2.33-5.68,3.3-7a7.15,7.15,0,0,1,1.15-1.09,4.85,4.85,0,0,0,.83-.72c.09-.08,0-.17.06-.26.26-.11.46,0,.6-.17a1,1,0,0,0,.35-.4h.23a.82.82,0,0,0,.48.26c.15,0,.32.05.46.05.35-.37.12-.57.49-.57.2,0,.06.23.26.23s0-.09.17-.09a2.33,2.33,0,0,1,1.26.58c.09.14.23.54.12.66s.08-.12.08.11-.6,2.1-.83,3.19c-.31,1.52-.63,4.39-.63,4.56s.09.63.09.89a2.2,2.2,0,0,0,.86,0,30.51,30.51,0,0,0,3.78-1.58C359.23,103.55,358.88,103.67,358.8,103.87Zm-6.57-5.37c-.12-.11,0-.23,0-.31a22.89,22.89,0,0,0-2.53,4l.18.2a37.8,37.8,0,0,0,2.52-4.1Z"/><path class="cls-1" d="M365.8,95.37a4.55,4.55,0,0,1-.23,2.13,1.05,1.05,0,0,1-.6.2,1.79,1.79,0,0,1-.87-.46.32.32,0,0,0-.22.26c-.26,2.15,0,4.39-.41,6.57-.14,1.06-.46,3.76-2.15,3.76-.23,0-.17-.09-.29-.12s0,0-.22,0c-.52,0-1.21-.8-1.32-.8a6.33,6.33,0,0,1-2.21-3.93,4,4,0,0,1,.6-1.75.56.56,0,0,0,.23-.06c0,.14-.09.37-.12.57s.15.09.26.2,0,.21,0,.46.26.09,0,.35a.76.76,0,0,1,.12.51c.11.23.43.46.28.78l.12.11a.4.4,0,0,1,.31-.17c.32.55.32,1.29.89,1.67a2.94,2.94,0,0,0,.72-1.24c.69-1.63.54-4.59.54-5.88,0-.43.21-1,.21-1.43,0-.15-.09-.32-.09-.46a11.34,11.34,0,0,1,.17-1.32c0-.35.09-2.9.8-2.9.23,0,.21,0,.32.11a2.32,2.32,0,0,1,1.49.43,6,6,0,0,1,1.26.92,1.16,1.16,0,0,1,0,.32,1.28,1.28,0,0,1,.46.8C365.91,95.23,365.88,95.29,365.8,95.37ZM359.06,104h-.12v-.43h.12Z"/><path class="cls-1" d="M372.14,103.44c.08,0,.2,0,.29.11a.85.85,0,0,1-.35.4.69.69,0,0,0-.09.49,6.63,6.63,0,0,0-1.49,1.32c0,.09.06.29-.17.4a3.33,3.33,0,0,1-1.15.38c-1.92.14-2.92-2.27-3-3.53a8.18,8.18,0,0,1,.2-1.9l.32-1.2a12.94,12.94,0,0,1,.94-3,2.47,2.47,0,0,1,0-.41c.12-.08.15-.31.35-.51a5.23,5.23,0,0,0,.66-.15,1.75,1.75,0,0,1,1.14.46,1.47,1.47,0,0,1,.69,1c0,.14-.11.31-.14.54a12.93,12.93,0,0,0-.29,1.55,3.74,3.74,0,0,1-.43,1.49c-.11.26-.17.78-.26,1-.34,1.17-.6,1.54-.4,2.23a13.06,13.06,0,0,0,3.65-2.61C372.25,101.89,372.77,102.89,372.14,103.44Zm-1.29-10.3a2.38,2.38,0,0,1-1.15-.38c0-.08,0-.11-.09-.2a2.46,2.46,0,0,1-.83-1.43c-.11-.23,0-.72-.17-1a6.13,6.13,0,0,0,2.15-.31c.2.26.46.4.55.6s-.06.54.28.86C371.11,92,372.22,93.05,370.85,93.14Z"/><path class="cls-1" d="M126.79,34.41c-1.06-4.38-2.71-12.07-2.71-12.07s-1.66,7.69-2.71,12.07l-3.05,12.33h11.51Zm7,28.57-2.05-8.54H116.41l-2,8.54H103.91L117.2,17.31H131L144.25,63Z"/><path class="cls-1" d="M166.08,35a13.83,13.83,0,0,0-7.87,3V54.76a21.4,21.4,0,0,0,7.41,1.57c3.57,0,7.14-2,7.14-10.83,0-9.53-3.3-10.51-6.68-10.51m.86,28.64a22.08,22.08,0,0,1-8.73-1.82V75.38h-9.92v-47h8.2L157.68,32a14.16,14.16,0,0,1,10.45-4.24c5,0,14.55,1.83,14.55,17.75s-9.79,18.13-15.74,18.13"/><path class="cls-1" d="M202.07,63.63c-5,0-11.91-.65-11.91-9.33V35.19h-5.27V28.4h5.27l.93-7.83,9-2.6V28.4h9.59l-1,6.79h-8.6V53c0,2.41,1.33,2.93,3,2.93a11.82,11.82,0,0,0,5.45-1.69v7.63a12.25,12.25,0,0,1-6.51,1.76"/><path class="cls-1" d="M228.77,34.41c-3.84,0-6.68,1.82-7,8.54h13.3c0-7.63-3.18-8.54-6.35-8.54m-7,14.74c.79,5.74,4.76,6.72,8.66,6.72,4.36,0,12.7-2.67,12.7-2.67v7.95a40.75,40.75,0,0,1-12.7,2.48c-7,0-18.52-1.3-18.52-17.74,0-14.68,9.79-18.14,16.87-18.14,7.67,0,16.2,3,16.2,18v3.39Z"/><path class="cls-1" d="M265.92,34.41c-3.84,0-6.68,1.82-6.95,8.54h13.3c0-7.63-3.18-8.54-6.35-8.54m-7,14.74c.79,5.74,4.76,6.72,8.66,6.72,4.37,0,12.7-2.67,12.7-2.67v7.95a40.66,40.66,0,0,1-12.7,2.48c-7,0-18.51-1.3-18.51-17.74,0-14.68,9.78-18.14,16.86-18.14,7.67,0,16.2,3,16.2,18v3.39Z"/><path class="cls-1" d="M307.71,63,296.47,44.06,306.78,28.4h12.44L306.65,43.67,320.54,63Zm-21.56,0V17.44h9.92V63Z"/><path class="cls-1" d="M42.26,6.85a24,24,0,0,0-6.48-4.36h0A29.9,29.9,0,0,0,24.53.09,25,25,0,0,0,6.74,7.5,25.84,25.84,0,0,0,.68,19.73,36.22,36.22,0,0,0,0,26.93,43.92,43.92,0,0,0,1.9,39.05c7.5,24.51,37.64,39.06,42.27,41,5.35-2.24,11.19-6,16.32-8.85,0,0-6.39-2.86-10.38-5.15a106.61,106.61,0,0,1-9.64-6.19C30,52.86,22,44.9,17.65,35.65,16.18,32.5,15.29,28,15.86,25s2.9-7.29,7.62-8.49a11.3,11.3,0,0,1,8.93,1.36c1.33-1.81,2.78-3.65,4.27-5.34,1.86-2.09,3.8-4,5.58-5.7"/><path class="cls-1" d="M87.91,21A26.14,26.14,0,0,0,81.37,7.22,25,25,0,0,0,63.82,0C57.61,0,49,3.91,44.44,8.81a94.41,94.41,0,0,0-9.62,10.76A26.22,26.22,0,0,1,38,22.78a61.89,61.89,0,0,1,6.16,8.62,53.58,53.58,0,0,1,9.11-10.53c6.45-5.32,17.9-5.35,19.23,4.58.83,6.22-3.91,15.87-10.16,22.48a79.78,79.78,0,0,1-15.5,12.69c1.44.93,3,1.91,4.83,3a94.42,94.42,0,0,0,11.47,5.71c2.29-1.84,4.61-3.68,6.78-5.65,8.26-7.5,13.82-15.78,16.51-24.58a43.41,43.41,0,0,0,1.46-18"/></g></g></svg>