<?xml version="1.0" encoding="UTF-8" standalone="no"?>
<!-- Created with Inkscape (http://www.inkscape.org/) -->

<svg
   width="150mm"
   height="35.000004mm"
   viewBox="0 0 150 35.000004"
   version="1.1"
   id="svg1"
   xml:space="preserve"
   inkscape:version="1.4.2 (ebf0e940d0, 2025-05-08)"
   sodipodi:docname="banner.svg"
   xmlns:inkscape="http://www.inkscape.org/namespaces/inkscape"
   xmlns:sodipodi="http://sodipodi.sourceforge.net/DTD/sodipodi-0.dtd"
   xmlns="http://www.w3.org/2000/svg"
   xmlns:svg="http://www.w3.org/2000/svg"><sodipodi:namedview
     id="namedview1"
     pagecolor="#ffffff"
     bordercolor="#000000"
     borderopacity="0.25"
     inkscape:showpageshadow="2"
     inkscape:pageopacity="0.0"
     inkscape:pagecheckerboard="0"
     inkscape:deskcolor="#d1d1d1"
     inkscape:document-units="mm"
     inkscape:zoom="2.1380472"
     inkscape:cx="263.55826"
     inkscape:cy="10.289763"
     inkscape:window-width="2560"
     inkscape:window-height="1371"
     inkscape:window-x="0"
     inkscape:window-y="0"
     inkscape:window-maximized="1"
     inkscape:current-layer="layer1" /><defs
     id="defs1"><inkscape:path-effect
       effect="fillet_chamfer"
       id="path-effect5"
       is_visible="true"
       lpeversion="1"
       nodesatellites_param="F,0,0,1,0,0,0,1 @ F,0,0,1,0,0,0,1 @ F,0,0,1,0,95.849849,0,1 @ F,0,0,1,0,121.80513,0,1"
       radius="7.5"
       unit="px"
       method="auto"
       mode="F"
       chamfer_steps="1"
       flexible="false"
       use_knot_distance="true"
       apply_no_radius="true"
       apply_with_radius="true"
       only_selected="false"
       hide_knots="false" /><inkscape:path-effect
       effect="fillet_chamfer"
       id="path-effect4"
       is_visible="true"
       lpeversion="1"
       nodesatellites_param="F,0,0,1,0,133.1098,0,1 @ F,0,0,1,0,126.41571,0,1 @ F,0,0,1,0,1.984375,0,1 @ F,0,0,1,0,1.984375,0,1"
       radius="7.5"
       unit="px"
       method="auto"
       mode="F"
       chamfer_steps="1"
       flexible="false"
       use_knot_distance="true"
       apply_no_radius="true"
       apply_with_radius="true"
       only_selected="false"
       hide_knots="false" /><rect
       x="331.14331"
       y="458.94684"
       width="25.139763"
       height="22.333464"
       id="rect4" /></defs><g
     inkscape:label="Transgender_Flag"
     inkscape:groupmode="layer"
     id="layer1"
     transform="matrix(0.23382822,0,0,0.28350913,5.4543921,-18.102429)"><g
       id="g1"
       transform="matrix(0.26729024,0,0,0.25719336,-23.326492,63.851309)"><rect
         fill="#5bcefa"
         width="800"
         height="480"
         id="rect1"
         x="0"
         y="0"
         style="stroke-width:74.0656;stroke-dasharray:none"
         ry="103.10143" /><rect
         fill="#f5a9b8"
         width="800"
         height="288"
         y="96"
         id="rect2"
         x="0" /><rect
         fill="#ffffff"
         width="800"
         height="96"
         y="192"
         id="rect3"
         x="0" /></g></g><g
     inkscape:groupmode="layer"
     id="layer3"
     inkscape:label="Heart"
     transform="translate(-25,-110)"><g
       id="g4"
       transform="matrix(1.1182555,0,0,1.0913967,79.871401,107.85541)"><path
         fill="#dd2e44"
         d="m 35.885,11.833 c 0,-5.45 -4.418,-9.868 -9.867,-9.868 C 22.71,1.965 19.791,3.598 18,6.094 16.209,3.598 13.29,1.965 9.983,1.965 c -5.45,0 -9.868,4.417 -9.868,9.868 0,0.772 0.098,1.52 0.266,2.241 1.37,8.513 10.835,17.494 17.619,19.96 6.783,-2.466 16.249,-11.447 17.617,-19.959 0.17,-0.721 0.268,-1.469 0.268,-2.242 z"
         id="path1-6" /><path
         fill="#fdcb58"
         d="M 34.347,23.894 30.523,22.478 29.107,18.654 C 28.962,18.26 28.587,18 28.169,18 c -0.418,0 -0.793,0.26 -0.938,0.653 l -1.416,3.824 -3.824,1.416 c -0.393,0.144 -0.653,0.519 -0.653,0.938 0,0.418 0.261,0.793 0.653,0.938 l 3.824,1.416 1.416,3.824 c 0.145,0.393 0.52,0.653 0.938,0.653 0.418,0 0.793,-0.261 0.938,-0.653 l 1.416,-3.824 3.824,-1.416 C 34.739,25.624 35,25.249 35,24.831 35,24.413 34.739,24.038 34.347,23.894 Z M 11.347,7.893 8.982,7.018 8.107,4.653 C 7.961,4.26 7.587,4 7.169,4 6.75,4 6.376,4.26 6.231,4.653 L 5.355,7.018 2.991,7.893 c -0.393,0.146 -0.653,0.52 -0.653,0.938 0,0.418 0.26,0.792 0.653,0.938 l 2.365,0.875 0.875,2.365 c 0.146,0.393 0.52,0.653 0.938,0.653 0.418,0 0.792,-0.26 0.938,-0.653 L 8.982,10.644 11.347,9.769 C 11.74,9.623 12,9.25 12,8.831 12,8.413 11.74,8.039 11.347,7.893 Z"
         id="path2-7" /></g></g><g
     inkscape:groupmode="layer"
     id="layer2"
     inkscape:label="Estonian_Flag"
     transform="translate(-25,-110)"><g
       id="g2"
       transform="matrix(0.05050505,0,0,0.05555556,125,110)"><path
         d="M 133.1098,0 H 863.58429 A 126.41571,126.41571 45 0 1 990,126.41571 V 313.01562 A 1.984375,1.984375 135 0 1 988.01562,315 H 1.984375 A 1.984375,1.984375 45 0 1 0,313.01562 V 133.1098 A 133.1098,133.1098 135 0 1 133.1098,0 Z"
         fill="#0072ce"
         id="path1"
         style="stroke-width:94.3928;stroke-dasharray:none"
         inkscape:path-effect="#path-effect4"
         inkscape:original-d="M 0,0 H 990 V 315 H 0 Z" /><path
         d="M 0,210 H 990 V 525 H 0 Z"
         id="path2" /><path
         d="M 0,420 H 990 V 534.15015 A 95.849849,95.849849 135 0 1 894.15015,630 H 121.80513 A 121.80513,121.80513 45 0 1 0,508.19487 Z"
         fill="#ffffff"
         id="path3"
         inkscape:path-effect="#path-effect5"
         inkscape:original-d="M 0,420 H 990 V 630 H 0 Z" /><g
         id="layer1-3"
         inkscape:label="Estonian_Flag" /></g></g></svg>
